<svg version="1.1" viewBox="0.0 0.0 96.0 96.0" fill="none" stroke="none" stroke-linecap="square" stroke-miterlimit="10" xmlns:xlink="http://www.w3.org/1999/xlink" xmlns="http://www.w3.org/2000/svg"><clipPath id="p.0"><path d="m0 0l96.0 0l0 96.0l-96.0 0l0 -96.0z" clip-rule="nonzero"/></clipPath><g clip-path="url(#p.0)"><path fill="#000000" fill-opacity="0.0" d="m0 0l96.0 0l0 96.0l-96.0 0z" fill-rule="evenodd"/><path fill="#000000" fill-opacity="0.0" d="m48.002625 15.272965l0 0c18.059387 0 32.70832 14.623172 32.740105 32.682537c0.031784058 18.05936 -14.565582 32.734005 -32.62486 32.797573l-0.11524582 -32.739952z" fill-rule="evenodd"/><path fill="#000000" fill-opacity="0.0" d="m48.002625 15.272965l0 0c18.059387 0 32.70832 14.623172 32.740105 32.682537c0.031784058 18.05936 -14.565582 32.734005 -32.62486 32.797573" fill-rule="evenodd"/><path stroke="#218838" stroke-width="20.0" stroke-linejoin="round" stroke-linecap="butt" d="m48.002625 15.272965l0 0c18.059387 0 32.70832 14.623172 32.740105 32.682537c0.031784058 18.05936 -14.565582 32.734005 -32.62486 32.797573" fill-rule="evenodd"/></g></svg>